<svg xmlns="http://www.w3.org/2000/svg" width="7" height="16" viewBox="0 0 7 16">
    <g fill="none" fill-rule="evenodd">
        <g fill="#D7D7D7">
            <g>
                <g>
                    <path d="M6.794 4.088c.287-.304.272-.783-.032-1.069-.304-.286-.783-.272-1.07.033L.618 8.445c-.823.873-.823 2.237 0 3.11l5.076 5.393c.286.305.765.32 1.069.033.304-.286.319-.765.032-1.07L1.72 10.519c-.275-.29-.275-.745 0-1.036l5.075-5.394z" transform="translate(-180.000000, -82.000000) translate(0.000000, 64.000000) translate(180.000000, 16.000000) translate(3.500000, 10.000000) scale(-1, 1) translate(-3.500000, -10.000000)"/>
                </g>
            </g>
        </g>
    </g>
</svg>
