<svg width="19" height="17" viewBox="0 0 19 17" fill="none" xmlns="http://www.w3.org/2000/svg">
<path d="M9.43872 3.59839C12.5396 3.59839 15.3051 5.34112 16.6551 8.09839C16.1724 9.09658 15.4933 9.95567 14.6833 10.6511L15.8369 11.8048C16.9742 10.7984 17.8742 9.53839 18.4387 8.09839C17.0233 4.50658 13.5296 1.96203 9.43872 1.96203C8.39963 1.96203 7.40145 2.12567 6.46054 2.42839L7.81054 3.77839C8.34236 3.67203 8.88236 3.59839 9.43872 3.59839ZM8.56327 4.53112L10.2569 6.22476C10.7233 6.4293 11.0996 6.80567 11.3042 7.27203L12.9978 8.96567C13.0633 8.68749 13.1124 8.39294 13.1124 8.09021C13.1205 6.06112 11.4678 4.41658 9.43872 4.41658C9.13599 4.41658 8.84963 4.45748 8.56327 4.53112ZM1.26508 1.85567L3.45781 4.04839C2.12418 5.09567 1.06872 6.48658 0.438721 8.09839C1.85418 11.6902 5.34781 14.2348 9.43872 14.2348C10.6824 14.2348 11.8769 13.9975 12.9733 13.5639L15.7714 16.362L16.9251 15.2084L2.41872 0.693848L1.26508 1.85567ZM7.40145 7.99203L9.5369 10.1275C9.50418 10.1357 9.47145 10.1438 9.43872 10.1438C8.30963 10.1438 7.39327 9.22749 7.39327 8.09839C7.39327 8.05749 7.40145 8.03294 7.40145 7.99203ZM4.61963 5.21021L6.05145 6.64203C5.86327 7.09203 5.7569 7.58294 5.7569 8.09839C5.7569 10.1275 7.40963 11.7802 9.43872 11.7802C9.95417 11.7802 10.4451 11.6739 10.8869 11.4857L11.6887 12.2875C10.9687 12.4839 10.216 12.5984 9.43872 12.5984C6.33781 12.5984 3.57236 10.8557 2.22236 8.09839C2.79508 6.92839 3.62963 5.96294 4.61963 5.21021Z" fill="#CFD3D5"/>
</svg>
