<svg width="24" height="16" viewBox="0 0 24 16" fill="none" xmlns="http://www.w3.org/2000/svg">
<path d="M21.9002 6.962C22.421 7.582 22.421 8.419 21.9002 9.038C20.2598 10.987 16.3242 15 11.7293 15C7.13445 15 3.19881 10.987 1.55841 9.038C1.30503 8.74113 1.16748 8.37592 1.16748 8C1.16748 7.62408 1.30503 7.25887 1.55841 6.962C3.19881 5.013 7.13445 1 11.7293 1C16.3242 1 20.2598 5.013 21.9002 6.962V6.962Z" stroke="#A77BCA" stroke-width="2" stroke-linecap="round" stroke-linejoin="round"/>
<path d="M11.7293 11C13.5498 11 15.0255 9.65685 15.0255 8C15.0255 6.34315 13.5498 5 11.7293 5C9.90892 5 8.43317 6.34315 8.43317 8C8.43317 9.65685 9.90892 11 11.7293 11Z" stroke="#A77BCA" stroke-width="2" stroke-linecap="round" stroke-linejoin="round"/>
</svg>
