<svg xmlns="http://www.w3.org/2000/svg" xmlns:xlink="http://www.w3.org/1999/xlink" width="122" height="45" viewBox="0 0 122 45">
    <defs>
        <path id="bjpi30fc1a" d="M0.204 0.223L17.816 0.223 17.816 34.074 0.204 34.074z"/>
    </defs>
    <g fill="none" fill-rule="evenodd">
        <g>
            <g>
                <path fill="#E30613" d="M23.977 12.329c-2.043 4.759-4.09 9.516-6.128 14.278-.84 1.965-1.613 3.96-2.515 5.895-.3.645-.272 1.655-1.516 1.614-1.167-.038-1.252-.956-1.538-1.621-2.881-6.695-5.713-13.41-8.56-20.119-.059-.138-.138-.267-.346-.665 0 1.64-.01 2.987.002 4.333.05 5.514.044 11.028.198 16.539.053 1.894-1.153 1.379-2.19 1.506-1.3.16-1.389-.46-1.382-1.512C.049 24.683.077 16.789 0 8.895-.014 7.39.321 6.861 1.93 6.93c2.901.123 2.892.033 4.009 2.626 2.653 6.155 5.35 12.293 7.829 18.803 1.156-2.81 2.221-5.424 3.309-8.029 1.692-4.054 3.423-8.093 5.087-12.159.4-.974 1.027-1.234 2.034-1.222 4.36.055 3.495-.293 3.52 3.351.052 7.372-.029 14.744.048 22.115.015 1.455-.516 1.693-1.825 1.706-1.366.015-1.776-.338-1.759-1.736.082-6.67.037-13.34.037-20.01l-.242-.045M40.074 29.883c1.922-4.546 3.648-8.657 5.408-12.756.307-.715.417-1.688 1.203-1.99.803-.31 1.908-.425 2.61.027.754.486-.13 1.245-.356 1.773-3.604 8.442-7.28 16.855-10.948 25.273-.427.981-2.383 1.656-3.27 1.114-.786-.482-.114-1.09.054-1.502.975-2.39 2.03-4.75 3.13-7.09.38-.805.322-1.436-.033-2.26-2.23-5.164-4.386-10.359-6.508-15.565-.226-.553-1.188-1.485-.127-1.782.94-.263 2.425-.764 3.066.801 1.066 2.601 2.141 5.199 3.215 7.797.785 1.898 1.575 3.795 2.556 6.16" transform="translate(-127.000000, -94.000000) translate(127.000000, 94.000000)"/>
                <path fill="#000" d="M106.336 24.186c.118 3.192.585 5.662 2.615 7.547 2.436 2.263 6.084 1.766 7.546-1.189 1.968-3.977 1.712-8.039-.584-11.779-2.114-3.443-6.625-3.1-8.545.466-.941 1.747-1.02 3.641-1.032 4.955zM122 25.942c-.23.703-.464 1.406-.691 2.11-1.351 4.177-5.198 6.735-9.86 6.554-4.468-.173-8.187-2.92-9.014-7.127-1.15-5.847 1.363-10.62 7.02-12.206 5.808-1.627 10.659 1.386 12.212 7.283.085.323.22.635.333.952v2.434z" transform="translate(-127.000000, -94.000000) translate(127.000000, 94.000000)"/>
                <g transform="translate(-127.000000, -94.000000) translate(127.000000, 94.000000) translate(88.276423, 0.000000)">
                    <mask id="lni9gwhf6b" fill="#fff">
                        <use xlink:href="#bjpi30fc1a"/>
                    </mask>
                    <path fill="#000" d="M14.478.223c.803.553 1.867.598 2.571 1.355.814.877 1.12 1.843.216 2.773-.838.862-1.75.738-2.583-.154-.395-.423-.85-.807-1.333-1.126-2.18-1.444-4.463-.827-5.417 1.61-1.238 3.166-1.217 6.524-1.144 9.868.017.749.516.802 1.08.8 1.34-.005 2.682-.004 4.023.003.572.003 1.209-.116 1.211.809.003.866-.333 1.309-1.237 1.293-1.283-.022-2.567.028-3.849-.012-.895-.029-1.255.323-1.248 1.233.029 3.985.038 7.97.014 11.954-.01 1.633 1.016 2.033 2.335 2.237.498.078 1.424-.206 1.307.686-.098.75-.95.47-1.493.476-2.507.026-5.015.03-7.521.013-.424-.003-1.053.2-1.182-.422-.172-.834.619-.75 1.054-.801 1.476-.174 1.932-1.123 1.94-2.42.025-3.867-.004-7.735.05-11.602.018-1.299-.706-1.399-1.689-1.361-.36.014-.876.216-1.05-.327-.196-.608.278-.887.718-1 1.864-.486 2.046-1.817 2.073-3.486.054-3.273.907-6.336 2.974-8.981C7.78 1.745 9.808.837 12.028.223h2.45z" mask="url(#lni9gwhf6b)"/>
                </g>
                <path fill="#000" d="M83.693 25.26c.002 1.644.019 3.287-.003 4.93-.02 1.456.374 2.54 2.085 2.694.421.037 1.09.04 1.007.715-.082.655-.721.488-1.154.492-2.428.024-4.857.024-7.285.012-.38-.001-.887.15-1.025-.414-.173-.705.434-.785.855-.831 1.543-.17 1.898-1.244 1.918-2.482.047-2.933.098-5.871-.012-8.801-.062-1.662-.484-3.307-2.317-4.021-2.037-.794-3.953-.459-5.674.835-.918.691-1.163 1.718-1.16 2.823.01 2.993.016 5.986.003 8.979-.006 1.366.332 2.431 1.934 2.66.358.05.888.074.857.679-.039.748-.636.565-1.058.569-2.369.02-4.738.02-7.107.001-.424-.003-1.04.175-1.084-.551-.042-.7.624-.7 1.01-.734 1.496-.13 1.832-1.086 1.836-2.318.014-3.521.02-7.043.022-10.564 0-.86-.236-1.602-1.028-2.108-1.21-.772-.895-1.323.282-1.756.604-.221 1.173-.531 1.769-.773.751-.305 1.448-1.187 2.207-.898.848.322.23 1.346.362 2.047.176.937.72.581 1.154.333 1.433-.816 2.895-1.487 4.547-1.806 4.171-.804 6.987 1.358 7.052 5.535.026 1.584.005 3.169.007 4.754M56.52 44.97c0-.875-.063-1.756.009-2.625.542-6.532-.966-12.856-1.825-19.246-.354-2.637-.84-5.263-.567-7.95.16-1.567.98-2.476 2.488-2.739 1.52-.264 2.418.6 3.016 1.858.483 1.014.69 2.113.758 3.258.5 8.328-.834 16.423-2.89 24.43-.261 1.014-.513 2.03-.77 3.044l-.22-.03" transform="translate(-127.000000, -94.000000) translate(127.000000, 94.000000)"/>
                <path fill="#000" d="M69.927 2.473c-.766 2.669-2.491 4.45-4.607 5.908-4.972 3.426-10.48 4.759-16.399 4.427-2.078-.117-4.15-.362-6.27-.854 10.129-.066 19.646-1.837 27.276-9.481" transform="translate(-127.000000, -94.000000) translate(127.000000, 94.000000)"/>
                <path fill="#000" d="M57.528 5.917c.01 1.625-1.106 2.93-2.55 2.983-1.557.056-2.913-1.588-2.905-3.522.006-1.44 1.374-2.9 2.723-2.905 1.562-.008 2.72 1.453 2.732 3.444" transform="translate(-127.000000, -94.000000) translate(127.000000, 94.000000)"/>
            </g>
        </g>
    </g>
</svg>
