<svg width="18" height="19" viewBox="0 0 18 19" fill="none" xmlns="http://www.w3.org/2000/svg">
<path d="M8.1 5.02783H9.9V6.82783H8.1V5.02783ZM8.1 8.62783H9.9V14.0278H8.1V8.62783ZM9 0.527832C4.032 0.527832 0 4.55983 0 9.52783C0 14.4958 4.032 18.5278 9 18.5278C13.968 18.5278 18 14.4958 18 9.52783C18 4.55983 13.968 0.527832 9 0.527832ZM9 16.7278C5.031 16.7278 1.8 13.4968 1.8 9.52783C1.8 5.55883 5.031 2.32783 9 2.32783C12.969 2.32783 16.2 5.55883 16.2 9.52783C16.2 13.4968 12.969 16.7278 9 16.7278Z" fill="#62B5DD"/>
</svg>
