<svg xmlns="http://www.w3.org/2000/svg" width="24" height="24" viewBox="0 0 24 24">
    <g fill="none" fill-rule="evenodd">
        <g>
            <g>
                <path d="M0 0H24V24H0z" transform="translate(-335.000000, -31.000000) translate(335.000000, 31.000000)"/>
                <path fill="#00B0D3" fill-rule="nonzero" d="M15.843 8.894c.156 1.403-.47 2.77-1.632 3.568-.87.598-1.39 1.564-1.39 2.585v.781h-1.563v-.781c0-1.536.773-2.984 2.068-3.873.687-.472 1.056-1.28.964-2.108-.114-1.03-.95-1.86-1.99-1.974-.666-.073-1.302.128-1.79.564-.475.426-.737 1.012-.737 1.649v.78H8.211v-.78c0-1.071.458-2.096 1.256-2.812.811-.727 1.906-1.074 3.004-.954 1.76.193 3.178 1.604 3.372 3.355zm-4.585 9.59h1.562v-1.562h-1.562v1.562zM22 12c0 2.671-1.04 5.182-2.929 7.071C17.182 20.96 14.671 22 12 22c-2.671 0-5.182-1.04-7.071-2.929C3.04 17.182 2 14.671 2 12c0-2.671 1.04-5.182 2.929-7.071C6.818 3.04 9.329 2 12 2c2.671 0 5.182 1.04 7.071 2.929C20.96 6.818 22 9.329 22 12zm-1.563 0c0-4.652-3.785-8.438-8.437-8.438-4.652 0-8.438 3.786-8.438 8.438 0 4.652 3.786 8.438 8.438 8.438 4.652 0 8.438-3.786 8.438-8.438z" transform="translate(-335.000000, -31.000000) translate(335.000000, 31.000000)"/>
            </g>
        </g>
    </g>
</svg>
