<svg xmlns="http://www.w3.org/2000/svg" width="45" height="45" viewBox="0 0 45 45">
    <defs>
        <linearGradient id="3zx2buol0a" x1="50%" x2="50%" y1="0%" y2="100%">
            <stop offset="0%" stop-color="#D4EFF6"/>
            <stop offset="100%" stop-color="#F9FCFE"/>
        </linearGradient>
        <linearGradient id="s266yjoulb" x1="50%" x2="50%" y1="0%" y2="100%">
            <stop offset="0%" stop-color="#6AC8E1"/>
            <stop offset="100%" stop-color="#138DB2"/>
        </linearGradient>
        <linearGradient id="30by42lgec" x1="50%" x2="50%" y1="0%" y2="100%">
            <stop offset="0%" stop-color="#6AC8E1"/>
            <stop offset="100%" stop-color="#138DB2"/>
        </linearGradient>
    </defs>
    <g fill="none" fill-rule="evenodd">
        <g>
            <g>
                <g fill="url(#3zx2buol0a)" transform="translate(-31.000000, -469.000000) translate(31.000000, 469.000000)">
                    <path d="M22.5 45C10.074 45 0 34.926 0 22.5S10.074 0 22.5 0 45 10.074 45 22.5 34.926 45 22.5 45z"/>
                </g>
                <g fill-rule="nonzero">
                    <path fill="#127DA4" d="M24.375 5.078c0-.841-.682-1.523-1.523-1.523H20.82V4.57h2.032c.28 0 .507.228.507.508v13.553l-2.53-2.53c1.216-2.171.901-4.969-.945-6.815l-.08-.077V.508c0-.28-.227-.508-.507-.508H8.633c-.027 0-.054.003-.08.007L8.534.01l-.023.005-.026.007-.016.005-.03.011-.013.006-.033.016-.01.006-.032.019-.016.012c-.008.006-.017.011-.024.018-.014.01-.026.022-.038.034L4.719 3.703c-.095.096-.149.225-.149.36v10.156H3.555v1.015h6.933c.787 2.204 2.893 3.78 5.367 3.78.985 0 1.943-.254 2.787-.728l1.516 1.519H1.523c-.28 0-.507-.228-.507-.508V5.078c0-.28.227-.508.507-.508h2.032V3.555H1.523C.683 3.555 0 4.237 0 5.078v14.219c0 .841.682 1.523 1.523 1.523h7.339c-.247 2.441-2.273 2.537-2.514 2.54-.28 0-.508.227-.508.507s.227.508.508.508h11.68c.28 0 .507-.227.507-.508 0-.28-.227-.508-.508-.508-.095 0-2.256-.03-2.514-2.539h5.66l.563.564c.29.29.683.453 1.093.452.41 0 .803-.165 1.092-.457.294-.295.445-.68.451-1.066h.003V5.078zm-8.79 18.281H8.79c.664-.691 1.055-1.593 1.112-2.539h4.569c.057.946.448 1.848 1.112 2.54zm-10-9.14V4.273l2.54-2.54v1.822H7.109V4.57h1.524c.28 0 .508-.227.508-.508V1.016h9.648V8.43c-.879-.528-1.892-.814-2.934-.814-.84 0-1.637.182-2.355.508H7.11v1.016h4.867c-.47.436-.866.95-1.167 1.523h-3.7v1.016h3.285c-.155.518-.239 1.067-.239 1.636 0 .307.025.609.072.903H5.586zm5.587-.903c0-2.586 2.097-4.683 4.683-4.683 1.243-.004 2.435.49 3.311 1.37.879.88 1.372 2.07 1.373 3.312 0 1.283-.516 2.445-1.351 3.29l-.043.044c-.846.834-2.007 1.35-3.289 1.35-2.586 0-4.683-2.096-4.684-4.683zm9.087 3.657l.749.748-.75.75-.749-.748.75-.75zm2.195 3.695l-1.478-1.479.75-.75 1.479 1.479c.102.103.154.238.154.372v.005c0 .135-.052.27-.154.373-.208.207-.543.207-.75 0z" transform="translate(-31.000000, -469.000000) translate(31.000000, 469.000000) translate(10.312500, 10.312500)"/>
                    <path fill="url(#s266yjoulb)" d="M13.294 10.754l.718.719c1.018-1.017 2.667-1.017 3.686 0l.718-.719c-1.415-1.412-3.707-1.412-5.122 0z" transform="translate(-31.000000, -469.000000) translate(31.000000, 469.000000) translate(10.312500, 10.312500)"/>
                    <path fill="url(#30by42lgec)" d="M7.109 5.586H17.265V6.602H7.109z" transform="translate(-31.000000, -469.000000) translate(31.000000, 469.000000) translate(10.312500, 10.312500)"/>
                </g>
            </g>
        </g>
    </g>
</svg>
