<svg xmlns="http://www.w3.org/2000/svg" width="45" height="45" viewBox="0 0 45 45">
    <defs>
        <linearGradient id="1rpfm3sbka" x1="50%" x2="50%" y1="0%" y2="100%">
            <stop offset="0%" stop-color="#D4EFF6"/>
            <stop offset="100%" stop-color="#F9FCFE"/>
        </linearGradient>
        <linearGradient id="ow3hgqo98b" x1="50%" x2="50%" y1="0%" y2="100%">
            <stop offset="0%" stop-color="#6AC8E1"/>
            <stop offset="100%" stop-color="#138DB2"/>
        </linearGradient>
    </defs>
    <g fill="none" fill-rule="evenodd">
        <g>
            <g>
                <g fill="url(#1rpfm3sbka)" transform="translate(-31.000000, -275.000000) translate(31.000000, 275.000000)">
                    <path d="M22.5 45C10.074 45 0 34.926 0 22.5S10.074 0 22.5 0 45 10.074 45 22.5 34.926 45 22.5 45z"/>
                </g>
                <g fill-rule="nonzero">
                    <path fill="#127DA4" d="M23.183 4.176c-1.878 0-3.406-1.528-3.406-3.406V0H4.217v.77c0 1.878-1.528 3.406-3.406 3.406h-.77V9.3c0 3.682 1.109 7.227 3.207 10.253 2.099 3.025 5.03 5.306 8.48 6.596l.27.101.27-.101c3.448-1.29 6.38-3.571 8.478-6.596 2.098-3.026 3.207-6.571 3.207-10.253V4.176h-.77zm-.77 5.124c0 3.366-1.015 6.608-2.933 9.374-1.864 2.687-4.447 4.732-7.483 5.928-3.036-1.196-5.619-3.24-7.483-5.928-1.918-2.766-2.932-6.008-2.932-9.374V5.657c2.111-.332 3.784-2.004 4.116-4.116h12.598c.332 2.112 2.005 3.784 4.117 4.116V9.3z" transform="translate(-31.000000, -275.000000) translate(31.000000, 275.000000) translate(10.312500, 9.375000)"/>
                    <path fill="url(#ow3hgqo98b)" d="M15.435 7.239l-5.1 5.1-1.776-1.776-3.269 3.269 5.045 5.045 8.369-8.37-3.269-3.268zM7.47 13.832l1.09-1.09 1.776 1.776 5.1-5.1 1.09 1.09-6.19 6.19-2.866-2.866z" transform="translate(-31.000000, -275.000000) translate(31.000000, 275.000000) translate(10.312500, 9.375000)"/>
                </g>
            </g>
        </g>
    </g>
</svg>
