<svg xmlns="http://www.w3.org/2000/svg" width="45" height="45" viewBox="0 0 45 45">
    <defs>
        <linearGradient id="lxeqq0sjba" x1="50%" x2="50%" y1="0%" y2="100%">
            <stop offset="0%" stop-color="#D4EFF6"/>
            <stop offset="100%" stop-color="#F9FCFE"/>
        </linearGradient>
        <linearGradient id="1apqx2ldzb" x1="50%" x2="50%" y1="0%" y2="100%">
            <stop offset="0%" stop-color="#6AC8E1"/>
            <stop offset="100%" stop-color="#138DB2"/>
        </linearGradient>
        <linearGradient id="fqqgt6nx6c" x1="50%" x2="50%" y1="0%" y2="100%">
            <stop offset="0%" stop-color="#6AC8E1"/>
            <stop offset="100%" stop-color="#138DB2"/>
        </linearGradient>
    </defs>
    <g fill="none" fill-rule="evenodd">
        <g>
            <g>
                <g fill="url(#lxeqq0sjba)" transform="translate(-31.000000, -372.000000) translate(31.000000, 372.000000)">
                    <path d="M22.5 45C10.074 45 0 34.926 0 22.5S10.074 0 22.5 0 45 10.074 45 22.5 34.926 45 22.5 45z"/>
                </g>
                <g fill-rule="nonzero">
                    <path fill="#127DA4" d="M23.746 10.54c-.835-.835-2.195-.835-3.031.002l-.717.721V7.066c0-.572-.223-1.11-.628-1.515l-2.02-2.02c-.066-.066-.136-.126-.209-.183V.714c0-.394-.32-.714-.714-.714H.717C.322 0 .003.32.003.714v20.043c0 .394.32.714.714.714h2.142v2.19c0 .394.32.714.714.714h15.71c.395 0 .715-.32.715-.714v-6.318l3.748-3.773c.835-.836.835-2.195 0-3.03zm-8.033-6.208h.123c.19 0 .37.075.504.21l2.02 2.02c.135.134.21.313.21.504v.123h-2.857V4.332zM2.859 3.618v16.425H1.431V1.428h14.282v1.476H3.573c-.394 0-.714.32-.714.714zm15.71 19.329H4.287V4.332h9.998v3.57c0 .395.32.715.714.715h3.57V12.7l-4.876 4.91c-.093.093-.158.21-.188.338l-.629 2.642c-.123.519.344.982.858.861l2.649-.623c.13-.03.249-.097.343-.192.194-.195 1.65-1.66 1.843-1.856v4.166zm-2.437-3.738l-.275.277-1.324.31.315-1.321.273-.275c.219.105.42.246.593.42.173.172.313.372.418.589zm1.042-1.05c-.13-.197-.281-.381-.45-.55-.172-.172-.36-.325-.562-.457l4.054-4.082 1.01 1.01-4.052 4.08zm5.56-5.597l-.501.504-1.01-1.01.503-.506c.279-.279.732-.278 1.01 0 .279.278.279.731-.002 1.012z" transform="translate(-31.000000, -372.000000) translate(31.000000, 372.000000) translate(10.312500, 10.312500)"/>
                    <path fill="url(#1apqx2ldzb)" d="M16.427 11.473c.394 0 .714.32.714.714 0 .395-.32.715-.714.715H6.43c-.395 0-.715-.32-.715-.714 0-.395.32-.715.715-.715zm-4.285-2.856c.395 0 .715.32.715.714 0 .394-.32.714-.715.714H6.43c-.395 0-.715-.32-.715-.714 0-.394.32-.714.715-.714zm0-2.857c.395 0 .715.32.715.715 0 .394-.32.714-.715.714H6.43c-.395 0-.715-.32-.715-.714 0-.395.32-.715.715-.715z" transform="translate(-31.000000, -372.000000) translate(31.000000, 372.000000) translate(10.312500, 10.312500)"/>
                    <path fill="url(#fqqgt6nx6c)" d="M12.647 15.967c-.278-.279-.73-.279-1.01 0l-3.78 3.78-.923-.923c-.278-.28-.73-.28-1.01 0-.278.279-.278.73 0 1.01l1.429 1.428c.279.279.73.279 1.01 0l4.284-4.285c.28-.279.28-.73 0-1.01z" transform="translate(-31.000000, -372.000000) translate(31.000000, 372.000000) translate(10.312500, 10.312500)"/>
                </g>
            </g>
        </g>
    </g>
</svg>
