<svg width="70" height="69" viewBox="0 0 70 69" fill="none" xmlns="http://www.w3.org/2000/svg">
<path fill-rule="evenodd" clip-rule="evenodd" d="M0.104492 34.4999C0.104492 34.4999 0.104492 34.4999 0.104492 34.4999C0.104492 25.3499 3.7393 16.5747 10.2093 10.1047C16.6793 3.63469 25.4545 -0.00012207 34.6045 -0.00012207C43.7545 -0.00012207 52.5297 3.63469 58.9997 10.1047C65.4697 16.5747 69.1045 25.3499 69.1045 34.4999C69.1045 43.6498 65.4697 52.4251 58.9997 58.8951C52.5297 65.3651 43.7545 68.9999 34.6045 68.9999C25.4545 68.9999 16.6793 65.3651 10.2093 58.8951C3.7393 52.4251 0.104492 43.6498 0.104492 34.4999C0.104492 34.4999 0.104492 34.4999 0.104492 34.4999ZM32.6357 49.2665C32.6357 49.2661 32.6358 49.2657 32.6361 49.2654L51.0633 26.2292C51.8559 25.2383 51.6953 23.7925 50.7044 22.9998C49.7136 22.2072 48.2679 22.3677 47.4751 23.3583L36.9001 36.5728C34.195 39.9531 29.2415 40.4532 25.9154 37.6818L21.743 34.2053C20.7674 33.3924 19.3175 33.5243 18.5045 34.4999C17.6915 35.4754 17.8233 36.9254 18.7988 37.7384L32.6327 49.2679C32.6339 49.269 32.6357 49.2681 32.6357 49.2665Z" fill="#78D64B"/>
</svg>
