
<svg width="28" height="28" viewBox="0 0 28 28" fill="none" xmlns="http://www.w3.org/2000/svg">
<path d="M12.65 6.77783H15.35V9.47783H12.65V6.77783ZM12.65 12.1778H15.35V20.2778H12.65V12.1778ZM14 0.027832C6.548 0.027832 0.5 6.07583 0.5 13.5278C0.5 20.9798 6.548 27.0278 14 27.0278C21.452 27.0278 27.5 20.9798 27.5 13.5278C27.5 6.07583 21.452 0.027832 14 0.027832ZM14 24.3278C8.0465 24.3278 3.2 19.4813 3.2 13.5278C3.2 7.57433 8.0465 2.72783 14 2.72783C19.9535 2.72783 24.8 7.57433 24.8 13.5278C24.8 19.4813 19.9535 24.3278 14 24.3278Z" fill="#E69A30"/>
</svg>
