<svg width="25" height="25" viewBox="0 0 25 25" fill="none" xmlns="http://www.w3.org/2000/svg">
<path fill-rule="evenodd" clip-rule="evenodd" d="M16.7754 14.361C16.5426 14.2445 15.4011 13.6836 15.1886 13.6055C14.9761 13.5281 14.8215 13.4899 14.666 13.7227C14.5113 13.9539 14.0668 14.4774 13.9316 14.632C13.7957 14.7875 13.6605 14.8063 13.4285 14.6906C13.1965 14.5735 12.448 14.3289 11.5613 13.5383C10.8715 12.9227 10.4051 12.1625 10.2699 11.9297C10.1347 11.6977 10.2551 11.5719 10.3715 11.4563C10.4762 11.3524 10.6035 11.1852 10.7199 11.05C10.8363 10.9141 10.8746 10.8172 10.9519 10.6617C11.0301 10.5071 10.991 10.3719 10.9324 10.2555C10.8746 10.1391 10.4105 8.99612 10.2168 8.53127C10.0285 8.07893 9.83709 8.14065 9.6949 8.13284C9.55897 8.12659 9.40428 8.12502 9.24959 8.12502C9.0949 8.12502 8.84334 8.18284 8.63084 8.41565C8.41756 8.64768 7.81834 9.2094 7.81834 10.3524C7.81834 11.4945 8.64959 12.5985 8.766 12.7539C8.88241 12.9086 10.4027 15.2539 12.7316 16.2594C13.2863 16.4984 13.7183 16.6414 14.0551 16.7477C14.6113 16.925 15.1176 16.9 15.5176 16.8399C15.9629 16.7734 16.891 16.2781 17.0847 15.7359C17.2777 15.1938 17.2777 14.7289 17.2199 14.632C17.1621 14.5352 17.0074 14.4774 16.7746 14.361H16.7754ZM12.5394 20.1445H12.5363C11.153 20.1448 9.79519 19.7729 8.60506 19.068L8.32381 18.9008L5.40038 19.668L6.18085 16.818L5.99725 16.5258C5.22392 15.2948 4.81467 13.8702 4.81679 12.4164C4.81835 8.15862 8.28241 4.69456 12.5426 4.69456C14.6051 4.69456 16.5441 5.49925 18.0019 6.95862C18.721 7.6747 19.2909 8.52625 19.6787 9.464C20.0665 10.4018 20.2645 11.4071 20.2613 12.4219C20.2597 16.6797 16.7957 20.1445 12.5394 20.1445ZM19.1113 5.85003C18.2505 4.98356 17.2263 4.29654 16.0981 3.82878C14.9699 3.36102 13.76 3.12182 12.5386 3.12503C7.41834 3.12503 3.2496 7.29299 3.24804 12.4156C3.24726 14.0531 3.6746 15.6516 4.48788 17.0602L3.16991 21.875L8.09491 20.5828C9.45731 21.3251 10.984 21.714 12.5355 21.7141H12.5394C17.6597 21.7141 21.8285 17.5461 21.83 12.4227C21.8338 11.2018 21.5955 9.99229 21.1288 8.86411C20.6621 7.73594 19.9764 6.71149 19.1113 5.85003Z" fill="#58AA31"/>
</svg>
